<svg width="233" height="186" viewBox="0 0 233 186" fill="none" xmlns="http://www.w3.org/2000/svg">
<ellipse cx="116.5" cy="91" rx="116.5" ry="91" fill="#0A73EB"/>
<path d="M67.6364 119.091C62.7273 119.091 58.5 117.932 54.9545 115.614C51.4091 113.295 48.6818 110.102 46.7727 106.034C44.8636 101.966 43.9091 97.3182 43.9091 92.0909C43.9091 86.7727 44.8864 82.0795 46.8409 78.0114C48.8182 73.9205 51.5682 70.7273 55.0909 68.4318C58.6364 66.1136 62.7727 64.9545 67.5 64.9545C71.1818 64.9545 74.5 65.6364 77.4545 67C80.4091 68.3636 82.8295 70.2727 84.7159 72.7273C86.6023 75.1818 87.7727 78.0455 88.2273 81.3182H80.1818C79.5682 78.9318 78.2045 76.8182 76.0909 74.9773C74 73.1136 71.1818 72.1818 67.6364 72.1818C64.5 72.1818 61.75 73 59.3864 74.6364C57.0455 76.25 55.2159 78.5341 53.8977 81.4886C52.6023 84.4205 51.9545 87.8636 51.9545 91.8182C51.9545 95.8636 52.5909 99.3864 53.8636 102.386C55.1591 105.386 56.9773 107.716 59.3182 109.375C61.6818 111.034 64.4545 111.864 67.6364 111.864C69.7273 111.864 71.625 111.5 73.3295 110.773C75.0341 110.045 76.4773 109 77.6591 107.636C78.8409 106.273 79.6818 104.636 80.1818 102.727H88.2273C87.7727 105.818 86.6477 108.602 84.8523 111.08C83.0795 113.534 80.7273 115.489 77.7955 116.943C74.8864 118.375 71.5 119.091 67.6364 119.091ZM137.08 77.3636L129.852 79.4091C129.398 78.2045 128.727 77.0341 127.841 75.8977C126.977 74.7386 125.795 73.7841 124.295 73.0341C122.795 72.2841 120.875 71.9091 118.534 71.9091C115.33 71.9091 112.659 72.6477 110.523 74.125C108.409 75.5795 107.352 77.4318 107.352 79.6818C107.352 81.6818 108.08 83.2614 109.534 84.4205C110.989 85.5795 113.261 86.5455 116.352 87.3182L124.125 89.2273C128.807 90.3636 132.295 92.1023 134.591 94.4432C136.886 96.7614 138.034 99.75 138.034 103.409C138.034 106.409 137.17 109.091 135.443 111.455C133.739 113.818 131.352 115.682 128.284 117.045C125.216 118.409 121.648 119.091 117.58 119.091C112.239 119.091 107.818 117.932 104.318 115.614C100.818 113.295 98.6023 109.909 97.6705 105.455L105.307 103.545C106.034 106.364 107.409 108.477 109.432 109.886C111.477 111.295 114.148 112 117.443 112C121.193 112 124.17 111.205 126.375 109.614C128.602 108 129.716 106.068 129.716 103.818C129.716 102 129.08 100.477 127.807 99.25C126.534 98 124.58 97.0682 121.943 96.4545L113.216 94.4091C108.42 93.2727 104.898 91.5114 102.648 89.125C100.42 86.7159 99.3068 83.7045 99.3068 80.0909C99.3068 77.1364 100.136 74.5227 101.795 72.25C103.477 69.9773 105.761 68.1932 108.648 66.8977C111.557 65.6023 114.852 64.9545 118.534 64.9545C123.716 64.9545 127.784 66.0909 130.739 68.3636C133.716 70.6364 135.83 73.6364 137.08 77.3636ZM187.236 77.3636L180.009 79.4091C179.554 78.2045 178.884 77.0341 177.997 75.8977C177.134 74.7386 175.952 73.7841 174.452 73.0341C172.952 72.2841 171.031 71.9091 168.69 71.9091C165.486 71.9091 162.815 72.6477 160.679 74.125C158.565 75.5795 157.509 77.4318 157.509 79.6818C157.509 81.6818 158.236 83.2614 159.69 84.4205C161.145 85.5795 163.418 86.5455 166.509 87.3182L174.281 89.2273C178.963 90.3636 182.452 92.1023 184.747 94.4432C187.043 96.7614 188.19 99.75 188.19 103.409C188.19 106.409 187.327 109.091 185.599 111.455C183.895 113.818 181.509 115.682 178.44 117.045C175.372 118.409 171.804 119.091 167.736 119.091C162.395 119.091 157.974 117.932 154.474 115.614C150.974 113.295 148.759 109.909 147.827 105.455L155.463 103.545C156.19 106.364 157.565 108.477 159.588 109.886C161.634 111.295 164.304 112 167.599 112C171.349 112 174.327 111.205 176.531 109.614C178.759 108 179.872 106.068 179.872 103.818C179.872 102 179.236 100.477 177.963 99.25C176.69 98 174.736 97.0682 172.099 96.4545L163.372 94.4091C158.577 93.2727 155.054 91.5114 152.804 89.125C150.577 86.7159 149.463 83.7045 149.463 80.0909C149.463 77.1364 150.293 74.5227 151.952 72.25C153.634 69.9773 155.918 68.1932 158.804 66.8977C161.713 65.6023 165.009 64.9545 168.69 64.9545C173.872 64.9545 177.94 66.0909 180.895 68.3636C183.872 70.6364 185.986 73.6364 187.236 77.3636Z" fill="white"/>
</svg>
