<svg width="218" height="230" viewBox="0 0 218 230" fill="none" xmlns="http://www.w3.org/2000/svg">
<ellipse cx="109" cy="128.5" rx="99" ry="91.5" fill="#F6840A"/>
<path d="M23.6364 156V109.455H29.2727V130.182H54.0909V109.455H59.7273V156H54.0909V135.182H29.2727V156H23.6364ZM68.4659 114.455V109.455H103.375V114.455H88.7386V156H83.1023V114.455H68.4659ZM112.074 109.455H118.801L134.619 148.091H135.165L150.983 109.455H157.71V156H152.438V120.636H151.983L137.438 156H132.347L117.801 120.636H117.347V156H112.074V109.455ZM169.011 156V109.455H174.648V151H196.284V156H169.011Z" fill="white"/>
</svg>
