<svg width="201" height="234" viewBox="0 0 201 234" fill="none" xmlns="http://www.w3.org/2000/svg">
<ellipse cx="100.5" cy="111" rx="90.5" ry="101" fill="#DED70C"/>
<path d="M76.1818 77.1818H84.6364V127.091C84.6364 131.545 83.8182 135.33 82.1818 138.443C80.5455 141.557 78.2386 143.92 75.2614 145.534C72.2841 147.148 68.7727 147.955 64.7273 147.955C60.9091 147.955 57.5114 147.261 54.5341 145.875C51.5568 144.466 49.2159 142.466 47.5114 139.875C45.8068 137.284 44.9545 134.205 44.9545 130.636H53.2727C53.2727 132.614 53.7614 134.341 54.7386 135.818C55.7386 137.273 57.1023 138.409 58.8295 139.227C60.5568 140.045 62.5227 140.455 64.7273 140.455C67.1591 140.455 69.2273 139.943 70.9318 138.92C72.6364 137.898 73.9318 136.398 74.8182 134.42C75.7273 132.42 76.1818 129.977 76.1818 127.091V77.1818ZM139.761 94.6364C139.352 91.1818 137.693 88.5 134.784 86.5909C131.875 84.6818 128.307 83.7273 124.08 83.7273C120.989 83.7273 118.284 84.2273 115.966 85.2273C113.67 86.2273 111.875 87.6023 110.58 89.3523C109.307 91.1023 108.67 93.0909 108.67 95.3182C108.67 97.1818 109.114 98.7841 110 100.125C110.909 101.443 112.068 102.545 113.477 103.432C114.886 104.295 116.364 105.011 117.909 105.58C119.455 106.125 120.875 106.568 122.17 106.909L129.261 108.818C131.08 109.295 133.102 109.955 135.33 110.795C137.58 111.636 139.727 112.784 141.773 114.239C143.841 115.67 145.545 117.511 146.886 119.761C148.227 122.011 148.898 124.773 148.898 128.045C148.898 131.818 147.909 135.227 145.932 138.273C143.977 141.318 141.114 143.739 137.341 145.534C133.591 147.33 129.034 148.227 123.67 148.227C118.67 148.227 114.341 147.42 110.682 145.807C107.045 144.193 104.182 141.943 102.091 139.057C100.023 136.17 98.8523 132.818 98.5795 129H107.307C107.534 131.636 108.42 133.818 109.966 135.545C111.534 137.25 113.511 138.523 115.898 139.364C118.307 140.182 120.898 140.591 123.67 140.591C126.898 140.591 129.795 140.068 132.364 139.023C134.932 137.955 136.966 136.477 138.466 134.591C139.966 132.682 140.716 130.455 140.716 127.909C140.716 125.591 140.068 123.705 138.773 122.25C137.477 120.795 135.773 119.614 133.659 118.705C131.545 117.795 129.261 117 126.807 116.318L118.216 113.864C112.761 112.295 108.443 110.057 105.261 107.148C102.08 104.239 100.489 100.432 100.489 95.7273C100.489 91.8182 101.545 88.4091 103.659 85.5C105.795 82.5682 108.659 80.2955 112.25 78.6818C115.864 77.0455 119.898 76.2273 124.352 76.2273C128.852 76.2273 132.852 77.0341 136.352 78.6477C139.852 80.2386 142.625 82.4205 144.67 85.1932C146.739 87.9659 147.83 91.1136 147.943 94.6364H139.761Z" fill="white"/>
</svg>
